<mxfile host="app.diagrams.net" agent="Mozilla/5.0 (Windows NT 10.0; Win64; x64) AppleWebKit/537.36 (KHTML, like Gecko) Chrome/137.0.0.0 Safari/537.36" version="27.1.6">
  <diagram name="Page-1" id="nJJx6bqvRDal_9u4VYYB">
    <mxGraphModel dx="1500" dy="691" grid="1" gridSize="10" guides="1" tooltips="1" connect="1" arrows="1" fold="1" page="1" pageScale="1" pageWidth="1100" pageHeight="850" math="0" shadow="0">
      <root>
        <mxCell id="0" />
        <mxCell id="1" parent="0" />
        <mxCell id="rz65PTjLMhhbHisabzY8-9" value="" style="rounded=0;whiteSpace=wrap;html=1;" parent="1" vertex="1">
          <mxGeometry x="161" y="240" width="160" height="360" as="geometry" />
        </mxCell>
        <mxCell id="rz65PTjLMhhbHisabzY8-4" value="" style="rounded=0;whiteSpace=wrap;html=1;" parent="1" vertex="1">
          <mxGeometry x="422" y="240" width="160" height="360" as="geometry" />
        </mxCell>
        <mxCell id="rz65PTjLMhhbHisabzY8-13" value="DB proxy&lt;div&gt;node N&lt;/div&gt;" style="triangle;whiteSpace=wrap;html=1;" parent="1" vertex="1">
          <mxGeometry x="662" y="364" width="120" height="100" as="geometry" />
        </mxCell>
        <mxCell id="rz65PTjLMhhbHisabzY8-17" style="rounded=0;orthogonalLoop=1;jettySize=auto;html=1;entryX=0;entryY=0.5;entryDx=0;entryDy=0;exitX=1;exitY=0.75;exitDx=0;exitDy=0;" parent="1" source="rz65PTjLMhhbHisabzY8-8" target="rz65PTjLMhhbHisabzY8-7" edge="1">
          <mxGeometry relative="1" as="geometry">
            <mxPoint x="370" y="640" as="targetPoint" />
          </mxGeometry>
        </mxCell>
        <mxCell id="rz65PTjLMhhbHisabzY8-31" value="Prompt" style="edgeLabel;html=1;align=center;verticalAlign=middle;resizable=0;points=[];" parent="rz65PTjLMhhbHisabzY8-17" vertex="1" connectable="0">
          <mxGeometry x="-0.1286" y="2" relative="1" as="geometry">
            <mxPoint as="offset" />
          </mxGeometry>
        </mxCell>
        <mxCell id="rz65PTjLMhhbHisabzY8-2" value="Client (Begin/Commit/Rollback Tx with timeout according to SLA)" style="text;html=1;align=left;verticalAlign=middle;whiteSpace=wrap;rounded=0;" parent="1" vertex="1">
          <mxGeometry x="161" y="210" width="190" height="30" as="geometry" />
        </mxCell>
        <mxCell id="rz65PTjLMhhbHisabzY8-19" style="rounded=0;orthogonalLoop=1;jettySize=auto;html=1;entryX=0;entryY=0.5;entryDx=0;entryDy=0;exitX=1;exitY=0.5;exitDx=0;exitDy=0;" parent="1" source="rz65PTjLMhhbHisabzY8-5" target="rz65PTjLMhhbHisabzY8-13" edge="1">
          <mxGeometry relative="1" as="geometry" />
        </mxCell>
        <mxCell id="rz65PTjLMhhbHisabzY8-39" value="gRPC" style="edgeLabel;html=1;align=center;verticalAlign=middle;resizable=0;points=[];" parent="rz65PTjLMhhbHisabzY8-19" vertex="1" connectable="0">
          <mxGeometry x="-0.1407" y="-3" relative="1" as="geometry">
            <mxPoint as="offset" />
          </mxGeometry>
        </mxCell>
        <mxCell id="rz65PTjLMhhbHisabzY8-5" value="gRPC API" style="rounded=0;whiteSpace=wrap;html=1;" parent="1" vertex="1">
          <mxGeometry x="442" y="254" width="120" height="60" as="geometry" />
        </mxCell>
        <mxCell id="rz65PTjLMhhbHisabzY8-20" style="rounded=0;orthogonalLoop=1;jettySize=auto;html=1;entryX=0;entryY=0.5;entryDx=0;entryDy=0;exitX=1;exitY=0.5;exitDx=0;exitDy=0;" parent="1" source="rz65PTjLMhhbHisabzY8-6" target="rz65PTjLMhhbHisabzY8-13" edge="1">
          <mxGeometry relative="1" as="geometry" />
        </mxCell>
        <mxCell id="rz65PTjLMhhbHisabzY8-40" value="gRPC" style="edgeLabel;html=1;align=center;verticalAlign=middle;resizable=0;points=[];" parent="rz65PTjLMhhbHisabzY8-20" vertex="1" connectable="0">
          <mxGeometry x="-0.2563" y="4" relative="1" as="geometry">
            <mxPoint as="offset" />
          </mxGeometry>
        </mxCell>
        <mxCell id="rz65PTjLMhhbHisabzY8-6" value="REST API" style="rounded=0;whiteSpace=wrap;html=1;" parent="1" vertex="1">
          <mxGeometry x="442" y="324" width="120" height="60" as="geometry" />
        </mxCell>
        <mxCell id="rz65PTjLMhhbHisabzY8-7" value="AI Agent API" style="rounded=0;whiteSpace=wrap;html=1;" parent="1" vertex="1">
          <mxGeometry x="442" y="450" width="120" height="60" as="geometry" />
        </mxCell>
        <mxCell id="rz65PTjLMhhbHisabzY8-14" style="rounded=0;orthogonalLoop=1;jettySize=auto;html=1;entryX=0;entryY=0.5;entryDx=0;entryDy=0;" parent="1" source="rz65PTjLMhhbHisabzY8-8" target="rz65PTjLMhhbHisabzY8-13" edge="1">
          <mxGeometry relative="1" as="geometry" />
        </mxCell>
        <mxCell id="rz65PTjLMhhbHisabzY8-43" value="gRPC" style="edgeLabel;html=1;align=center;verticalAlign=middle;resizable=0;points=[];" parent="rz65PTjLMhhbHisabzY8-14" vertex="1" connectable="0">
          <mxGeometry x="0.1062" y="3" relative="1" as="geometry">
            <mxPoint as="offset" />
          </mxGeometry>
        </mxCell>
        <mxCell id="rz65PTjLMhhbHisabzY8-15" style="rounded=0;orthogonalLoop=1;jettySize=auto;html=1;entryX=0;entryY=0.5;entryDx=0;entryDy=0;" parent="1" source="rz65PTjLMhhbHisabzY8-8" target="rz65PTjLMhhbHisabzY8-5" edge="1">
          <mxGeometry relative="1" as="geometry" />
        </mxCell>
        <mxCell id="rz65PTjLMhhbHisabzY8-29" value="gRPC" style="edgeLabel;html=1;align=center;verticalAlign=middle;resizable=0;points=[];" parent="rz65PTjLMhhbHisabzY8-15" vertex="1" connectable="0">
          <mxGeometry x="0.0179" y="1" relative="1" as="geometry">
            <mxPoint as="offset" />
          </mxGeometry>
        </mxCell>
        <mxCell id="rz65PTjLMhhbHisabzY8-16" style="rounded=0;orthogonalLoop=1;jettySize=auto;html=1;entryX=0;entryY=0.5;entryDx=0;entryDy=0;" parent="1" source="rz65PTjLMhhbHisabzY8-8" target="rz65PTjLMhhbHisabzY8-6" edge="1">
          <mxGeometry relative="1" as="geometry" />
        </mxCell>
        <mxCell id="rz65PTjLMhhbHisabzY8-30" value="JSON" style="edgeLabel;html=1;align=center;verticalAlign=middle;resizable=0;points=[];" parent="rz65PTjLMhhbHisabzY8-16" vertex="1" connectable="0">
          <mxGeometry x="-0.0425" y="2" relative="1" as="geometry">
            <mxPoint as="offset" />
          </mxGeometry>
        </mxCell>
        <mxCell id="rz65PTjLMhhbHisabzY8-18" style="rounded=0;orthogonalLoop=1;jettySize=auto;html=1;entryX=0;entryY=0.5;entryDx=0;entryDy=0;" parent="1" source="rz65PTjLMhhbHisabzY8-8" target="rz65PTjLMhhbHisabzY8-10" edge="1">
          <mxGeometry relative="1" as="geometry" />
        </mxCell>
        <mxCell id="rz65PTjLMhhbHisabzY8-32" value="Message" style="edgeLabel;html=1;align=center;verticalAlign=middle;resizable=0;points=[];" parent="rz65PTjLMhhbHisabzY8-18" vertex="1" connectable="0">
          <mxGeometry x="-0.0163" y="-2" relative="1" as="geometry">
            <mxPoint as="offset" />
          </mxGeometry>
        </mxCell>
        <mxCell id="rz65PTjLMhhbHisabzY8-8" value="Client app using&lt;div&gt;gRPC/JDBC&lt;/div&gt;" style="rounded=0;whiteSpace=wrap;html=1;" parent="1" vertex="1">
          <mxGeometry x="181" y="384" width="120" height="60" as="geometry" />
        </mxCell>
        <mxCell id="rz65PTjLMhhbHisabzY8-22" style="rounded=0;orthogonalLoop=1;jettySize=auto;html=1;entryX=0;entryY=0.5;entryDx=0;entryDy=0;exitX=1;exitY=0.5;exitDx=0;exitDy=0;" parent="1" source="rz65PTjLMhhbHisabzY8-10" target="rz65PTjLMhhbHisabzY8-13" edge="1">
          <mxGeometry relative="1" as="geometry" />
        </mxCell>
        <mxCell id="rz65PTjLMhhbHisabzY8-42" value="gRPC" style="edgeLabel;html=1;align=center;verticalAlign=middle;resizable=0;points=[];" parent="rz65PTjLMhhbHisabzY8-22" vertex="1" connectable="0">
          <mxGeometry x="-0.2603" y="3" relative="1" as="geometry">
            <mxPoint as="offset" />
          </mxGeometry>
        </mxCell>
        <mxCell id="rz65PTjLMhhbHisabzY8-10" value="Event streaming" style="rounded=0;whiteSpace=wrap;html=1;" parent="1" vertex="1">
          <mxGeometry x="442" y="520" width="120" height="60" as="geometry" />
        </mxCell>
        <mxCell id="rz65PTjLMhhbHisabzY8-21" style="rounded=0;orthogonalLoop=1;jettySize=auto;html=1;exitX=1;exitY=0.5;exitDx=0;exitDy=0;entryX=0;entryY=0.5;entryDx=0;entryDy=0;" parent="1" source="rz65PTjLMhhbHisabzY8-7" target="rz65PTjLMhhbHisabzY8-13" edge="1">
          <mxGeometry relative="1" as="geometry" />
        </mxCell>
        <mxCell id="rz65PTjLMhhbHisabzY8-41" value="gRPC" style="edgeLabel;html=1;align=center;verticalAlign=middle;resizable=0;points=[];" parent="rz65PTjLMhhbHisabzY8-21" vertex="1" connectable="0">
          <mxGeometry x="-0.2783" y="6" relative="1" as="geometry">
            <mxPoint as="offset" />
          </mxGeometry>
        </mxCell>
        <mxCell id="rz65PTjLMhhbHisabzY8-23" value="RDBMS" style="shape=cylinder3;whiteSpace=wrap;html=1;boundedLbl=1;backgroundOutline=1;size=15;" parent="1" vertex="1">
          <mxGeometry x="865" y="364" width="70" height="100" as="geometry" />
        </mxCell>
        <mxCell id="rz65PTjLMhhbHisabzY8-24" style="edgeStyle=orthogonalEdgeStyle;rounded=0;orthogonalLoop=1;jettySize=auto;html=1;entryX=0;entryY=0.5;entryDx=0;entryDy=0;entryPerimeter=0;" parent="1" source="rz65PTjLMhhbHisabzY8-13" target="rz65PTjLMhhbHisabzY8-23" edge="1">
          <mxGeometry relative="1" as="geometry" />
        </mxCell>
        <mxCell id="rz65PTjLMhhbHisabzY8-38" value="Connection&lt;div&gt;string A&lt;/div&gt;" style="edgeLabel;html=1;align=center;verticalAlign=middle;resizable=0;points=[];" parent="rz65PTjLMhhbHisabzY8-24" vertex="1" connectable="0">
          <mxGeometry x="-0.1165" y="3" relative="1" as="geometry">
            <mxPoint as="offset" />
          </mxGeometry>
        </mxCell>
        <mxCell id="rz65PTjLMhhbHisabzY8-25" value="Layer N (Use same shared Tx by transaction id and proxy node)" style="text;html=1;align=left;verticalAlign=middle;whiteSpace=wrap;rounded=0;" parent="1" vertex="1">
          <mxGeometry x="422" y="210" width="205" height="30" as="geometry" />
        </mxCell>
        <mxCell id="rz65PTjLMhhbHisabzY8-27" value="RDBMS" style="shape=cylinder3;whiteSpace=wrap;html=1;boundedLbl=1;backgroundOutline=1;size=15;" parent="1" vertex="1">
          <mxGeometry x="865" y="490" width="70" height="100" as="geometry" />
        </mxCell>
        <mxCell id="rz65PTjLMhhbHisabzY8-28" style="rounded=0;orthogonalLoop=1;jettySize=auto;html=1;entryX=0;entryY=0.5;entryDx=0;entryDy=0;entryPerimeter=0;" parent="1" source="rz65PTjLMhhbHisabzY8-13" target="rz65PTjLMhhbHisabzY8-27" edge="1">
          <mxGeometry relative="1" as="geometry" />
        </mxCell>
        <mxCell id="rz65PTjLMhhbHisabzY8-35" value="Text" style="edgeLabel;html=1;align=center;verticalAlign=middle;resizable=0;points=[];" parent="rz65PTjLMhhbHisabzY8-28" vertex="1" connectable="0">
          <mxGeometry x="-0.0157" y="-1" relative="1" as="geometry">
            <mxPoint as="offset" />
          </mxGeometry>
        </mxCell>
        <mxCell id="rz65PTjLMhhbHisabzY8-37" value="Connection&lt;div&gt;string B&lt;/div&gt;" style="edgeLabel;html=1;align=center;verticalAlign=middle;resizable=0;points=[];" parent="rz65PTjLMhhbHisabzY8-28" vertex="1" connectable="0">
          <mxGeometry x="0.0025" y="-2" relative="1" as="geometry">
            <mxPoint as="offset" />
          </mxGeometry>
        </mxCell>
        <mxCell id="rz65PTjLMhhbHisabzY8-33" style="edgeStyle=orthogonalEdgeStyle;rounded=0;orthogonalLoop=1;jettySize=auto;html=1;" parent="1" source="rz65PTjLMhhbHisabzY8-4" target="rz65PTjLMhhbHisabzY8-4" edge="1">
          <mxGeometry relative="1" as="geometry">
            <Array as="points">
              <mxPoint x="560" y="640" />
              <mxPoint x="640" y="640" />
              <mxPoint x="640" y="560" />
            </Array>
          </mxGeometry>
        </mxCell>
        <mxCell id="rz65PTjLMhhbHisabzY8-44" value="According to&lt;div&gt;business logic&lt;/div&gt;" style="edgeLabel;html=1;align=center;verticalAlign=middle;resizable=0;points=[];" parent="rz65PTjLMhhbHisabzY8-33" vertex="1" connectable="0">
          <mxGeometry x="0.0388" y="2" relative="1" as="geometry">
            <mxPoint as="offset" />
          </mxGeometry>
        </mxCell>
      </root>
    </mxGraphModel>
  </diagram>
</mxfile>
